<svg class="prefix__svg-corner" width="460" height="358" xmlns="http://www.w3.org/2000/svg"><style>@-webkit-keyframes lines-1{0%,to{-webkit-transform:translateX(0) translateY(0) scale(1);transform:translateX(0) translateY(0) scale(1)}50%{-webkit-transform:translateX(-10px) translateY(-6px) scale(.98);transform:translateX(-10px) translateY(-6px) scale(.98)}}@keyframes lines-1{0%,to{-webkit-transform:translateX(0) translateY(0) scale(1);transform:translateX(0) translateY(0) scale(1)}50%{-webkit-transform:translateX(-10px) translateY(-6px) scale(.98);transform:translateX(-10px) translateY(-6px) scale(.98)}}@-webkit-keyframes lines-2{0%,to{-webkit-transform:translateX(0) translateY(0) scale(1);transform:translateX(0) translateY(0) scale(1)}50%{-webkit-transform:translateX(-6px) translateY(-2px) scale(.98);transform:translateX(-6px) translateY(-2px) scale(.98)}}@keyframes lines-2{0%,to{-webkit-transform:translateX(0) translateY(0) scale(1);transform:translateX(0) translateY(0) scale(1)}50%{-webkit-transform:translateX(-6px) translateY(-2px) scale(.98);transform:translateX(-6px) translateY(-2px) scale(.98)}}.prefix__svg-corner path{-webkit-animation-iteration-count:infinite;animation-iteration-count:infinite;-webkit-animation-timing-function:ease-in-out;animation-timing-function:ease-in-out}.prefix__svg-corner path:nth-child(1){-webkit-animation-name:lines-1;animation-name:lines-1;-webkit-animation-duration:4.9s;animation-duration:4.9s}.prefix__svg-corner path:nth-child(2),.prefix__svg-corner path:nth-child(3){-webkit-animation-name:lines-1;animation-name:lines-1;-webkit-animation-duration:3.7s;animation-duration:3.7s}.prefix__svg-corner path:nth-child(3){-webkit-animation-duration:3.3s;animation-duration:3.3s}.prefix__svg-corner path:nth-child(4),.prefix__svg-corner path:nth-child(5){-webkit-animation-name:lines-1;animation-name:lines-1;-webkit-animation-duration:6.4s;animation-duration:6.4s}.prefix__svg-corner path:nth-child(5){-webkit-animation-duration:4.1s;animation-duration:4.1s}.prefix__svg-corner path:nth-child(6){-webkit-animation-name:lines-2;animation-name:lines-2;-webkit-animation-duration:5.8s;animation-duration:5.8s}</style><path fill="none" id="prefix__canvas_background" d="M-1-1h802v602H-1z"/><g fill-rule="evenodd" fill="none" id="prefix__Home"><g id="prefix__Home-Desktop-2-HD"><path id="prefix__svg_1" fill="#FFF" d="M-1508-3847H-68v5407h-1440z"/><g stroke-width="1.6" transform="rotate(35 811.952 -928.912)" id="prefix__soundwaves-copy"><path stroke="#F6DA40" id="prefix__Path" d="M1607 377.886c-68.542 4.405-136.964 4.845-205.636 6.607-35.774.882-69.294 3.965-104.696-3.964-34.401-7.489-67.921-19.823-100.93-33.479-27.622-11.013-55.744-24.668-84.617-30.835-26.489-5.727-54.11-3.965-80.598 1.321-55.865 10.572-109.846 40.967-165.46 41.408-54.61.44-110.977 5.726-165.461 21.585-54.61 15.858-109.345 37.443-165.336 32.157-34.272-3.083-68.544-13.656-102.816-20.704-35.779-7.048-71.18-2.643-102.817-27.312-40.674-31.275-71.306-80.612-102.816-123.782C198.324 203.885 166.562 155.87 123 147.5"/><path stroke="#7C868D" id="prefix__Path" d="M1607 458.5c-37.916-3.966-72.188-23.796-106.579-41.864-32.017-16.746-64.536-31.288-98.807-39.66-33.77-7.933-66.409-11.9-98.917-27.323-35.904-16.746-70.555-39.22-106.96-52.44-27.25-10.136-57.625-16.305-86.378-8.814-27.862 7.051-53.85 24.238-78.836 40.102-52.35 33.491-106.33 68.745-165.586 69.626-54.358.882-110.223 9.255-165.586-2.203-27.87-5.728-54.735-16.305-82.48-23.796-27.116-7.051-55.362-11.458-82.73-13.661-34.147-3.085-69.047-1.322-103.444 2.203-35.276 3.526-68.67 15.864-102.44-1.763-35.402-18.508-66.41-47.152-102.315-64.338-32.891-15.864-67.54-21.593-102.942-18.068"/><path stroke="#00839B" id="prefix__Path" d="M123 215.5c41.93 7.535 74.821 47.871 104.575 81.558 31.008 35.017 62.266 73.58 101.058 95.742 31.385 18.173 67.791 15.513 101.06 27.038 35.15 12.41 69.297 30.584 104.573 39.449 27.368 7.092 55.113 7.092 82.73-.887 28.498-8.421 55.364-22.605 82.606-35.903 53.354-25.708 109.596-41.665 165.461-41.665 54.107-.443 109.595-24.822 165.46-28.811 57.494-3.99 110.353 15.957 165.214 32.357 33.14 9.751 66.91 17.73 100.93 22.163 35.023 4.432 69.675 0 104.697 2.659 68.922 4.876 136.343 17.287 205.636 13.297"/><path stroke="#C5CFDB" id="prefix__Path" d="M1607 507.5c-38.417-5.72-71.807-29.92-104.826-52.8-32.138-22.442-64.777-44.002-100.56-56.323-33.52-11.44-67.66-14.96-100.68-29.04-35.152-15.401-69.293-35.642-105.076-45.762-27.37-7.92-56.615-10.12-84.616-1.76-28.122 8.36-54.481 25.52-80.593 40.041-52.727 29.921-107.211 54.122-165.586 55.442-54.987 1.32-109.345 25.96-165.586 20.24-28.623-3.08-55.112-13.2-82.48-23.32-27.117-10.12-55.111-18.92-82.73-25.081-34.398-7.48-70.05-8.8-105.202-7.48-34.398 1.32-66.536 11-100.557.88-33.645-10.12-65.783-25.521-100.432-30.361-35.15-4.4-70.302 0-105.076 6.16"/><path stroke="#C5CFDB" id="prefix__Path" d="M123 291.5c38.167 3.97 70.183 30.875 101.068 56.457 32.894 26.905 66.165 56.015 104.583 69.689 16.824 6.175 33.27 6.175 50.472 9.262 17.451 2.646 34.275 9.262 50.47 17.202 35.531 16.76 69.053 41.461 104.71 56.015 25.612 10.586 53.61 16.32 80.854 9.261 29.881-7.495 57.753-28.227 84.37-45.428 51.978-33.522 105.964-63.514 165.475-64.396 54.74-.883 109.982-15.879 165.476-14.115 55.991 1.765 110.487 20.73 165.223 31.758a647.114 647.114 0 00100.94 11.908c35.034 1.323 69.93-3.97 104.714 1.764 69.3 11.91 134.843 38.814 205.645 37.05"/><path stroke="#8DC7E9" id="prefix__Path" d="M1607 548.5c-39.298-5.77-72.688-33.29-104.826-59.48-32.008-26.187-64.146-53.263-100.56-69.242-32.388-14.648-67.54-17.311-100.68-29.296-34.902-12.872-69.423-30.183-105.076-36.84-27.992-5.327-56.745-3.996-84.616 4.882-27.612 8.877-53.98 23.525-80.593 35.953-53.354 25.301-110.098 39.505-165.586 41.28-54.735 1.776-108.466 40.394-165.586 43.5-58.502 3.107-111.228-31.96-165.21-52.377-33.268-12.429-68.293-19.53-103.445-21.75-34.398-2.663-68.167 5.327-102.44 2.22-34.272-3.108-67.916-7.546-102.314-3.995-34.65 3.55-68.796 11.984-103.068 18.642"/></g></g></g></svg>
